<?xml version="1.0" encoding="UTF-8"?>
<svg width="512pt" height="512pt" version="1.1" viewBox="0 0 512 512" xmlns="http://www.w3.org/2000/svg">
 <path d="m256 76.801c-98.984 0-179.2 80.23-179.2 179.2s80.215 179.2 179.2 179.2c98.988 0 179.2-80.23 179.2-179.2s-80.211-179.2-179.2-179.2zm70.199 138.61-68.277 83.969c-1.3008 1.5938-3.1797 2.6016-5.2227 2.8008-2.043 0.19531-4.0859-0.43359-5.6562-1.7461l-48.152-40.168c-3.2578-2.7188-3.6953-7.5625-0.97656-10.82 2.7148-3.2578 7.5625-3.6953 10.82-0.97656l42.184 35.184 63.371-77.93c2.6797-3.293 7.5156-3.7891 10.805-1.1094 3.2812 2.6719 3.7734 7.5078 1.1055 10.797z" fill="#007335"/>
</svg>
