<?xml version="1.0" encoding="UTF-8"?>
<svg width="512pt" height="512pt" version="1.1" viewBox="0 0 512 512" xmlns="http://www.w3.org/2000/svg">
 <path d="m256 76.801c-98.984 0-179.2 80.23-179.2 179.2s80.215 179.2 179.2 179.2c98.988 0 179.2-80.23 179.2-179.2s-80.211-179.2-179.2-179.2zm87.039 186.88h-87.039c-2.0234 0-4-0.82031-5.4336-2.2461-1.4336-1.4297-2.2461-3.4102-2.2461-5.4336v-112.64c0-4.2383 3.4414-7.6797 7.6797-7.6797s7.6797 3.4414 7.6797 7.6797v104.96h79.359c4.2383 0 7.6797 3.4414 7.6797 7.6797s-3.4375 7.6797-7.6797 7.6797z" fill="#ffa400"/>
</svg>
